<?xml version="1.0" standalone="no"?>
<svg version="1.0" xmlns="http://www.w3.org/2000/svg"
 width="484.000000pt" height="484.000000pt" viewBox="0 0 484.000000 484.000000"
 preserveAspectRatio="xMidYMid meet">

<g transform="translate(0.000000,484.000000) scale(0.100000,-0.100000)"
fill="#000000" stroke="none">
  <path d="M584 4825 c-143 -31 -265 -98 -368 -201 -76 -75 -123 -147 -163 -244
  -56 -139 -54 -50 -51 -1983 l3 -1782 24 -70 c85 -253 253 -419 501 -497 l75
  -23 1805 0 1805 0 75 23 c251 79 422 250 502 502 l23 75 0 1805 0 1805 -23 75
  c-78 248 -244 416 -497 501 l-70 24 -1790 2 c-1466 1 -1801 -1 -1851 -12z
  m826 -1195 l0 -200 400 0 400 0 0 -400 0 -400 -400 0 -400 0 0 -800 0 -800
  -400 0 -400 0 0 1400 0 1400 400 0 400 0 0 -200z m2800 -1210 l0 -1390 -400 0
  -400 0 0 800 0 800 -400 0 -400 0 0 400 0 400 400 0 400 0 0 190 0 190 400 0
  400 0 0 -1390z"/>
</g>
</svg>
